<?xml version="1.0" encoding="utf-8"?>
<!-- Generator: Adobe Illustrator 17.1.0, SVG Export Plug-In . SVG Version: 6.00 Build 0)  -->
<!DOCTYPE svg PUBLIC "-//W3C//DTD SVG 1.1//EN" "http://www.w3.org/Graphics/SVG/1.1/DTD/svg11.dtd">
<svg version="1.1" id="Layer_1" xmlns="http://www.w3.org/2000/svg" xmlns:xlink="http://www.w3.org/1999/xlink" x="0px" y="0px"
	 viewBox="0 0 1400 1224" enable-background="new 0 0 1400 1224" xml:space="preserve">
<g>
	<path fill="#4D37B9" d="M700-0.1C362-0.1,87.9,274,87.9,612s274,612.1,612.1,612.1c338,0,612.1-274,612.1-612.1S1038-0.1,700-0.1z
		 M1120,778c0,42.1-29.8,93.7-66.2,114.7l-287.5,166c-36.4,21-96,21-132.4,0l-287.5-166c-36.4-21-66.2-72.6-66.2-114.7V446
		c0-42.1,29.8-93.7,66.2-114.7l287.5-166c36.4-21,96-21,132.4,0l287.5,166c36.4,21,66.2,72.6,66.2,114.7V778z"/>
	<path fill="#4D37B9" d="M883.1,634.7H845c-9.8,0-17.7,7.9-17.7,17.7c0,9.7,7.9,17.7,17.7,17.7h38.1c11.3,0,20.5,9.2,20.5,20.5
		c0,11.3-9.2,20.5-20.5,20.5H845c-9.8,0-17.7,7.9-17.7,17.7s7.9,17.7,17.7,17.7h38.1c11.3,0,20.5,9.2,20.5,20.5
		c0,11.3-9.2,20.5-20.5,20.5H845c-9.8,0-17.7,7.9-17.7,17.7c0,9.8,7.9,17.7,17.7,17.7h38.1c30.8,0,55.8-25,55.8-55.8
		c0-14.8-6-28.1-15.5-38.1c9.5-10,15.5-23.3,15.5-38.2C938.9,659.7,913.9,634.7,883.1,634.7z"/>
	<path fill="#4D37B9" d="M919.7,412.5H480.3c-23.1,0-41.9,18.9-41.9,41.9v53.9c0,23.1,18.9,41.9,41.9,41.9h111
		c23.1,0,41.9,18.9,41.9,41.9v245.4c0,23.1,18.9,41.9,41.9,41.9h49.7c23.1,0,41.9-18.9,41.9-41.9V592.1c0-23.1,18.9-41.9,41.9-41.9
		h111c23.1,0,41.9-18.9,41.9-41.9v-53.9C961.6,431.4,942.7,412.5,919.7,412.5z"/>
</g>
</svg>
